<?xml version="1.0" standalone="no"?>
<!DOCTYPE svg PUBLIC "-//W3C//DTD SVG 20010904//EN"
 "http://www.w3.org/TR/2001/REC-SVG-20010904/DTD/svg10.dtd">
<svg version="1.0" xmlns="http://www.w3.org/2000/svg"
 width="1024.000000pt" height="1024.000000pt" viewBox="0 0 1024.000000 1024.000000"
 preserveAspectRatio="xMidYMid meet">
<metadata>
Created by potrace 1.11, written by Peter Selinger 2001-2013
</metadata>
<g transform="translate(0.000000,1024.000000) scale(0.100000,-0.100000)"
fill="#000000" stroke="none">
<path d="M7020 7140 l0 -1120 135 0 135 0 0 268 0 268 79 77 c78 76 103 90
118 63 7 -12 120 -138 212 -235 18 -20 63 -69 100 -110 36 -41 80 -88 96 -105
17 -17 70 -75 118 -129 l89 -97 185 0 184 0 -48 51 c-26 29 -57 62 -68 73 -11
12 -76 82 -145 156 -68 74 -143 155 -166 180 -24 25 -55 59 -71 76 -15 17 -75
82 -133 144 -58 62 -109 118 -115 125 -5 6 -20 22 -32 36 -22 25 -23 26 -4 45
10 10 176 176 370 367 193 192 351 351 351 353 0 2 -76 4 -168 4 l-169 0 -49
-49 c-39 -38 -483 -492 -690 -706 l-39 -40 -3 713 -2 712 -135 0 -135 0 0
-1120z"/>
<path d="M896 8189 c-136 -20 -278 -73 -376 -138 -46 -31 -160 -139 -160 -151
0 -4 -9 -17 -20 -30 -24 -28 -58 -118 -72 -190 -12 -65 -4 -207 16 -271 55
-178 199 -309 416 -377 81 -25 258 -60 505 -99 137 -21 287 -84 338 -140 73
-79 87 -240 32 -342 -45 -83 -127 -144 -245 -184 -73 -24 -146 -32 -300 -31
-126 2 -160 6 -262 32 -178 46 -347 125 -459 213 -20 16 -42 29 -48 29 -8 0
-11 -55 -11 -179 l0 -179 72 -30 c150 -62 314 -106 463 -126 101 -14 416 -14
485 -1 102 19 166 41 270 92 98 48 126 68 190 132 127 129 180 258 175 433 -3
122 -7 140 -44 223 -82 181 -277 286 -646 350 -50 8 -102 17 -115 20 -14 3
-52 10 -85 15 -297 52 -408 116 -441 258 -29 123 -9 207 69 286 29 28 66 58
82 66 17 8 32 17 35 20 10 10 80 31 152 45 73 14 281 14 358 0 169 -31 344
-98 464 -179 38 -25 73 -46 78 -46 5 0 7 76 6 172 l-3 171 -65 24 c-120 45
-227 73 -415 108 -54 10 -378 13 -439 4z"/>
<path d="M3038 7665 c-2 -2 -17 -6 -34 -9 -80 -14 -227 -86 -321 -157 -29 -21
-55 -39 -58 -39 -3 0 -5 38 -5 85 l0 85 -135 0 -135 0 0 -805 0 -805 135 0
135 0 0 599 0 600 83 54 c164 108 252 138 392 133 180 -6 260 -77 281 -251 3
-27 8 -59 9 -70 2 -11 4 -255 4 -542 l1 -523 135 0 136 0 -2 598 -2 597 54 38
c166 116 279 157 414 153 100 -4 120 -7 162 -30 64 -35 97 -81 117 -162 23
-92 25 -127 25 -676 l1 -518 136 0 135 0 -3 608 c-4 595 -5 608 -27 682 -44
146 -123 253 -226 303 -84 42 -132 51 -270 51 -120 0 -137 -2 -218 -31 -97
-34 -217 -103 -305 -173 l-57 -46 -36 56 c-45 70 -125 132 -215 166 -58 22
-88 27 -185 30 -64 2 -118 1 -121 -1z"/>
<path d="M5644 7645 c-143 -36 -230 -87 -331 -193 -68 -71 -139 -196 -167
-293 -52 -180 -58 -450 -13 -620 72 -276 234 -452 487 -530 99 -30 328 -34
430 -6 269 73 452 276 516 572 22 103 27 333 9 442 -40 249 -148 428 -328 544
-159 103 -398 136 -603 84z m321 -230 c181 -43 285 -168 330 -400 21 -106 13
-349 -14 -443 -67 -230 -211 -348 -427 -350 -178 -2 -325 81 -398 226 -51 101
-69 193 -70 357 -1 170 6 230 35 318 53 161 158 260 309 294 67 15 168 14 235
-2z"/>
<path d="M9215 7653 c-243 -50 -436 -211 -534 -446 -16 -40 -32 -84 -35 -97
-2 -14 -10 -50 -17 -80 -14 -60 -18 -317 -7 -390 31 -194 89 -312 212 -435
120 -120 262 -186 461 -214 70 -10 317 -8 365 3 51 12 80 18 87 18 5 1 31 9
58 18 28 9 55 18 60 20 6 1 15 4 20 5 6 2 45 16 88 31 l77 29 0 147 c0 82 -2
148 -5 148 -3 0 -31 -16 -61 -35 -84 -54 -244 -117 -359 -141 -66 -13 -251
-12 -320 3 -235 50 -390 230 -411 478 l-6 75 597 0 598 0 -6 163 c-4 113 -11
184 -25 237 -70 265 -238 422 -504 469 -74 13 -256 10 -333 -6z m297 -218
c177 -41 275 -165 294 -372 l6 -63 -461 0 -462 0 6 38 c35 205 183 366 369
401 64 12 188 10 248 -4z"/>
<path d="M5020 4321 l0 -349 -77 34 c-116 49 -185 65 -313 69 -200 8 -359 -47
-496 -172 -108 -97 -212 -288 -240 -438 -2 -11 -8 -42 -13 -70 -10 -53 -8
-339 3 -390 40 -191 67 -264 137 -366 116 -171 287 -254 509 -245 157 6 294
57 433 163 l57 44 0 -85 0 -86 135 0 135 0 0 1120 0 1120 -135 0 -135 0 0
-349z m-213 -507 c38 -8 101 -26 141 -41 l72 -28 0 -455 0 -454 -31 -27 c-42
-36 -171 -103 -249 -129 -74 -26 -211 -35 -279 -19 -214 48 -312 235 -306 579
3 150 4 156 31 248 34 118 112 227 201 278 103 61 266 79 420 48z"/>
<path d="M5810 4450 l0 -140 155 0 155 0 0 140 0 140 -155 0 -155 0 0 -140z"/>
<path d="M800 4460 l0 -110 140 0 140 0 0 -850 0 -850 -140 0 -140 0 0 -110 0
-110 425 0 425 0 0 110 0 110 -140 0 -140 0 0 850 0 850 140 0 140 0 0 110 0
110 -425 0 -425 0 0 -110z"/>
<path d="M2775 4061 c-116 -29 -211 -76 -332 -164 l-53 -38 0 91 0 90 -135 0
-135 0 0 -805 0 -805 135 0 135 0 0 599 0 599 68 45 c164 109 293 152 433 143
128 -8 201 -46 246 -130 26 -50 35 -87 48 -216 2 -14 3 -253 4 -532 l1 -508
136 0 135 0 -4 603 c-3 545 -5 608 -21 667 -52 185 -156 300 -319 352 -87 28
-249 32 -342 9z"/>
<path d="M7165 4070 c-230 -32 -432 -170 -537 -365 -44 -80 -69 -155 -93 -270
-14 -64 -14 -311 -1 -396 66 -424 347 -655 786 -644 69 2 141 6 160 10 63 13
191 56 266 90 l74 34 0 150 c0 86 -4 151 -9 151 -5 0 -16 -6 -23 -13 -55 -53
-228 -139 -335 -166 -75 -19 -228 -24 -288 -8 -83 21 -139 53 -198 110 -111
107 -157 234 -163 447 -5 196 25 332 97 440 165 246 521 265 853 45 29 -19 56
-35 60 -35 3 0 6 67 6 149 l0 148 -61 28 c-194 87 -407 121 -594 95z"/>
<path d="M8570 4073 c-42 -4 -155 -21 -190 -28 -14 -2 -38 -7 -55 -10 -16 -4
-51 -11 -77 -17 l-48 -12 0 -138 c0 -76 3 -138 8 -138 4 0 48 14 97 31 50 17
97 32 105 34 8 2 51 11 95 20 103 22 318 27 404 9 155 -33 228 -111 239 -255
l5 -69 -29 -1 c-59 -3 -280 -19 -319 -23 -16 -2 -61 -7 -100 -11 -99 -10 -285
-59 -358 -96 -197 -97 -282 -233 -282 -449 0 -112 5 -147 34 -219 58 -145 184
-252 347 -295 42 -11 91 -15 174 -12 172 6 289 46 441 151 44 30 82 55 85 55
2 0 4 -38 4 -85 l0 -85 135 0 135 0 0 593 c-1 375 -5 608 -11 637 -6 25 -13
56 -15 70 -10 49 -68 140 -120 190 -64 60 -170 113 -276 136 -69 15 -343 26
-428 17z m580 -1018 l0 -225 -47 -35 c-145 -106 -298 -157 -452 -151 -153 6
-236 48 -287 146 -29 55 -26 201 5 260 70 134 222 190 591 216 52 4 96 7 97 8
1 0 22 2 47 4 l46 2 0 -225z"/>
<path d="M5830 3235 l0 -805 135 0 135 0 0 805 0 805 -135 0 -135 0 0 -805z"/>
</g>
</svg>
